<?xml version="1.0" encoding="UTF-8"?>
<svg id="_레이어_2" data-name="레이어 2" xmlns="http://www.w3.org/2000/svg" viewBox="0 0 240.58 80.76">
  <defs>
    <style>
      .cls-1 {
        fill: #c14602;
      }

      .cls-2 {
        stroke: #c8531a;
        stroke-miterlimit: 10;
      }

      .cls-2, .cls-3 {
        fill: #c8531a;
      }
    </style>
  </defs>
  <g id="_레이어_1-2" data-name="레이어 1">
    <g>
      <path class="cls-1" d="M91.48,60.75l2.46-2.89c2.08,1.95,4.85,3.24,7.82,3.24,3.46,0,5.39-1.59,5.39-3.8,0-2.67-2-3.42-4.71-4.56l-3.86-1.69c-2.79-1.1-5.86-3.13-5.86-7.16,0-4.26,3.84-7.49,9.24-7.49,3.39,0,6.47,1.34,8.6,3.43l-2.17,2.68c-1.83-1.53-3.82-2.44-6.61-2.44s-4.81,1.33-4.81,3.57c0,2.38,2.36,3.24,4.77,4.18l3.71,1.64c3.43,1.34,6,3.33,6,7.33,0,4.39-3.71,7.97-9.91,7.97-3.93,0-7.48-1.52-10.05-4.02Z"/>
      <path class="cls-1" d="M116.28,54.1c0-6.83,4.79-10.74,10.17-10.74s10.17,3.91,10.17,10.74-4.79,10.67-10.17,10.67-10.17-3.91-10.17-10.67ZM132.35,54.1c0-4.4-2.3-7.32-5.91-7.32s-5.91,2.92-5.91,7.32,2.3,7.25,5.91,7.25,5.91-2.89,5.91-7.25Z"/>
      <path class="cls-1" d="M144.71,43.87h3.45l.37,4.73h.1c2.11-3.32,5.25-5.23,8.9-5.23,1.58,0,3.82.32,5.06.92l-.1,3.17c-1.55-.4-4.04-.38-5.61-.38-2.92,0-5.74,1.49-8,5.61v11.58h-4.16v-20.41Z"/>
      <path class="cls-1" d="M165.53,47.5l-3.08-.04v-3.19l7.25-.1v20.41h-4.16v-17.09ZM164.17,37.22c0-1.76,1.31-2.97,3.1-2.97s3.1,1.21,3.1,2.97-1.31,2.96-3.1,2.96-3.1-1.16-3.1-2.96Z"/>
      <path class="cls-1" d="M171.22,61.6l1.85-2.69c2.39,1.65,5.18,2.68,8.7,2.68,3.13,0,4.63-1.25,4.63-2.78,0-1.44-.85-2.36-5.99-3.42-5.39-1.12-7.92-2.98-7.92-6.07,0-3.41,3.07-5.95,8.72-5.95,3.25,0,6.35,1.27,8.39,2.65l-1.95,2.6c-1.93-1.29-4.29-2.09-6.8-2.09-3.04,0-4.21,1.2-4.21,2.6,0,1.6,1.63,2.23,5.64,3.08,6.64,1.45,8.31,3.16,8.31,6.36,0,3.42-3.31,6.22-9.34,6.22-3.9,0-7.52-1.45-10.02-3.17Z"/>
      <path class="cls-1" d="M195.87,54.1c0-6.83,4.79-10.74,10.17-10.74s10.17,3.91,10.17,10.74-4.79,10.67-10.17,10.67-10.17-3.91-10.17-10.67ZM211.94,54.1c0-4.4-2.3-7.32-5.91-7.32s-5.91,2.92-5.91,7.32,2.3,7.25,5.91,7.25,5.91-2.89,5.91-7.25Z"/>
      <path class="cls-1" d="M222.22,43.86h3.4l.33,3.25h.17c2.04-2.1,4.37-3.75,7.52-3.75,4.77,0,6.95,2.93,6.95,8.25v12.66h-4.16v-12.12c0-3.57-1.2-5.21-4.22-5.21-2.22,0-3.72,1.1-5.83,3.25v14.08h-4.16v-20.41Z"/>
    </g>
    <g>
      <g>
        <path class="cls-3" d="M.57,36.23c4,1.03,7.91,2.65,11.62,4.45,7.66,3.7,14.93,8.7,20.09,15.55,3.3,4.39,5.5,9.45,6.36,14.88.17,1.11,2.82.41,2.91-.54.53-6,.41-12.1.07-18.11-.68-11.98-2.65-24.2-7.5-35.24C31.32,10.85,27.49,4.87,22.25.24c-.85-.75-3.57.4-2.68,1.19,9.36,8.26,14.06,20.47,16.63,32.4,2.17,10.1,2.94,20.51,2.72,30.83-.04,2.07-.11,4.15-.29,6.21l2.91-.54c-1.53-9.7-7.4-17.74-14.98-23.72-5.91-4.66-12.73-8.14-19.8-10.69-1.46-.53-2.94-1.04-4.45-1.43-.67-.17-1.57.04-2.05.55-.42.46-.32,1.01.32,1.18h0Z"/>
        <path class="cls-3" d="M42.03,21.11c1.19.91,2.01,2.44,2.66,3.74,2.2,4.4,3,9.46,3.29,14.32s.03,9.77-.51,14.61c-.04.39,2.8.12,2.9-.78.83-7.46,1.11-15.21-.58-22.58-.74-3.24-1.89-6.57-3.98-9.2-.31-.39-.65-.81-1.05-1.12-.64-.49-3.18.65-2.73,1h0Z"/>
        <path class="cls-3" d="M54.82,31.38c1.07,1.4,1.62,3.57,2.06,5.51,1.53,6.78,1.13,13.94.32,20.78-.17,1.46,2.78,1.06,2.93-.23.83-7.01,1.21-14.38-.36-21.33-.45-1.98-1.03-4.35-2.3-6-.79-1.03-3.55.1-2.65,1.27h0Z"/>
        <path class="cls-3" d="M75.91,25.98c-.72,4.62-1.76,9.22-2.94,13.74-2.15,8.29-4.83,16.85-9.44,24.14-2.03,3.21-4.69,6.68-8.34,8.11-.38.15-1.12.5-.82.99.28.45,1.57.05,1.89-.07,7.54-2.95,11.7-11.29,14.6-18.32,3.15-7.63,5.3-15.69,6.95-23.76.36-1.75.7-3.5.97-5.26.14-.91-2.75-.39-2.88.44h0Z"/>
      </g>
      <circle class="cls-2" cx="30.38" cy="76.45" r="3.81"/>
    </g>
  </g>
</svg>