<?xml version="1.0" encoding="UTF-8"?>
<svg id="_레이어_2" data-name="레이어 2" xmlns="http://www.w3.org/2000/svg" viewBox="0 0 79.91 81.93">
  <defs>
    <style>
      .cls-1 {
        stroke: #c8531a;
        stroke-miterlimit: 10;
      }

      .cls-1, .cls-2 {
        fill: #c8531a;
      }
    </style>
  </defs>
  <g id="_레이어_1-2" data-name="레이어 1">
    <g>
      <g>
        <path class="cls-2" d="M.57,36.74c4.06,1.05,8.02,2.69,11.78,4.51,7.77,3.75,15.14,8.82,20.38,15.77,3.36,4.46,5.6,9.6,6.47,15.13.17,1.11,2.82.41,2.91-.54.54-6.09.42-12.29.07-18.38-.69-12.16-2.69-24.56-7.62-35.77C31.73,10.99,27.85,4.94,22.53.24c-.85-.75-3.57.4-2.68,1.19,9.5,8.39,14.28,20.78,16.87,32.9,2.19,10.22,2.98,20.76,2.76,31.21-.04,2.12-.11,4.25-.3,6.37l2.91-.54c-1.55-9.84-7.5-17.99-15.19-24.06-6.01-4.74-12.96-8.28-20.15-10.87-1.47-.53-2.95-1.04-4.46-1.43-.67-.17-1.57.04-2.05.55-.42.46-.32,1.01.32,1.18h0Z"/>
        <path class="cls-2" d="M42.65,21.4c1.2.92,2.03,2.46,2.69,3.77,2.25,4.49,3.06,9.65,3.36,14.61s.02,9.87-.52,14.78c-.04.39,2.8.12,2.9-.78.84-7.55,1.12-15.41-.58-22.87-.76-3.3-1.92-6.71-4.06-9.39-.31-.39-.65-.81-1.05-1.12-.64-.49-3.18.65-2.73,1h0Z"/>
        <path class="cls-2" d="M55.62,31.82c.32.42.56.94.67,1.18.64,1.41,1.08,2.9,1.42,4.41,1.55,6.88,1.15,14.15.33,21.09-.17,1.46,2.78,1.06,2.93-.23.72-6.08,1.03-12.28.21-18.37-.38-2.82-.99-5.71-2.28-8.27-.19-.37-.38-.76-.63-1.09-.79-1.03-3.55.1-2.65,1.27h0Z"/>
        <path class="cls-2" d="M77.03,26.34c-.73,4.69-1.79,9.35-2.98,13.94-2.19,8.45-4.92,17.18-9.64,24.59-2.06,3.23-4.74,6.71-8.42,8.15-.38.15-1.12.5-.82.99.28.45,1.57.05,1.89-.07,7.68-3.01,11.91-11.54,14.85-18.7,3.17-7.7,5.34-15.83,7-23.98.36-1.78.71-3.56.99-5.36.14-.91-2.75-.39-2.88.44h0Z"/>
      </g>
      <circle class="cls-1" cx="30.81" cy="77.56" r="3.87"/>
    </g>
  </g>
</svg>